<?xml version="1.0" standalone="no"?><!DOCTYPE svg PUBLIC "-//W3C//DTD SVG 1.1//EN" "http://www.w3.org/Graphics/SVG/1.1/DTD/svg11.dtd"><svg t="1575458244566" class="icon" viewBox="0 0 1039 1024" version="1.1" xmlns="http://www.w3.org/2000/svg" p-id="3718" xmlns:xlink="http://www.w3.org/1999/xlink" width="202.9296875" height="200"><defs><style type="text/css"></style></defs><path d="M590.43665 877.472291a38.396471 38.396471 0 1 1 0-76.792942h410.785773a38.396471 38.396471 0 1 1 0 76.792942zM395.913352 1024a38.396471 38.396471 0 1 1 0-76.792942h605.309071a38.396471 38.396471 0 1 1 0 76.792942zM39.052034 1008.754342A38.396471 38.396471 0 0 1 0.655563 963.299697C7.431411 931.679074 62.202848 656.692583 124.87944 578.770334a43.760684 43.760684 0 0 1 4.234905-5.364213L646.902048 56.465398a190.853047 190.853047 0 0 1 269.904604 0l23.997795 23.997795a190.853047 190.853047 0 0 1 0 269.904604L426.12234 864.48525l-1.976289 2.258615a24.844775 24.844775 0 0 1-4.234905 3.670251c-74.816653 63.241246-341.61566 129.870416-371.824648 137.493245a39.525779 39.525779 0 0 1-9.034464 0.846981z m125.070858-346.132892a1633.261649 1633.261649 0 0 0-75.09898 254.094293 1684.927488 1684.927488 0 0 0 245.90681-84.698098zM395.913352 785.998346L778.466426 403.727599 593.542246 218.238765 210.706845 600.509512z m436.759857-436.47753l53.924455-53.924455a112.930797 112.930797 0 0 0 0-161.49104l-23.997794-23.997794a112.930797 112.930797 0 0 0-161.49104 0L647.184375 164.031982z" p-id="3719" fill="#ffffff"></path></svg>